<svg xmlns="http://www.w3.org/2000/svg" xmlns:xlink="http://www.w3.org/1999/xlink" width="1600" zoomAndPan="magnify" viewBox="0 0 1200 675.000002" height="900" preserveAspectRatio="xMidYMid meet" version="1.0"><defs><clipPath id="3e9a11c848"><path d="M 964 193 L 1142.777344 193 L 1142.777344 355 L 964 355 Z M 964 193 " clip-rule="nonzero"/></clipPath><clipPath id="e56c0be341"><path d="M 790.796875 417 L 1059 417 L 1059 606.277344 L 790.796875 606.277344 Z M 790.796875 417 " clip-rule="nonzero"/></clipPath><clipPath id="d6798b60df"><path d="M 307 44 L 364.652344 44 L 364.652344 120.597656 L 307 120.597656 Z M 307 44 " clip-rule="nonzero"/></clipPath></defs><g clip-path="url(#3e9a11c848)"><path fill="#000000" d="M 1142.195312 229.121094 C 1141.671875 227.128906 1140.027344 225.632812 1137.992188 225.292969 L 1115.445312 221.53125 L 1116.515625 198.738281 C 1116.613281 196.679688 1115.492188 194.757812 1113.652344 193.828125 C 1111.8125 192.894531 1109.597656 193.128906 1107.992188 194.421875 L 1079.570312 217.328125 C 1078.40625 218.269531 1077.699219 219.660156 1077.628906 221.15625 L 1076.449219 246.238281 L 1068.074219 252.988281 C 1064.457031 249.226562 1060.359375 245.949219 1055.832031 243.214844 C 1049.179688 239.199219 1041.933594 236.542969 1034.285156 235.320312 C 1026.367188 234.054688 1018.375 234.390625 1010.53125 236.320312 C 1002.683594 238.25 995.445312 241.65625 989.023438 246.449219 C 982.820312 251.074219 977.636719 256.785156 973.613281 263.425781 C 969.589844 270.066406 966.929688 277.304688 965.703125 284.9375 C 964.4375 292.839844 964.773438 300.820312 966.707031 308.652344 C 968.636719 316.484375 972.050781 323.707031 976.847656 330.121094 C 981.484375 336.3125 987.203125 341.492188 993.855469 345.507812 C 1000.507812 349.523438 1007.757812 352.179688 1015.402344 353.402344 C 1018.535156 353.902344 1021.675781 354.152344 1024.816406 354.152344 C 1029.617188 354.152344 1034.417969 353.566406 1039.160156 352.402344 C 1047.007812 350.472656 1054.242188 347.066406 1060.667969 342.273438 C 1066.871094 337.648438 1072.054688 331.9375 1076.078125 325.296875 C 1080.101562 318.65625 1082.761719 311.421875 1083.984375 303.789062 C 1085.253906 295.882812 1084.914062 287.902344 1082.984375 280.070312 C 1081.304688 273.257812 1078.5 266.902344 1074.640625 261.144531 L 1083.035156 254.378906 L 1107.84375 258.519531 C 1108.132812 258.566406 1108.421875 258.589844 1108.707031 258.589844 C 1109.898438 258.589844 1111.0625 258.183594 1112 257.429688 L 1140.417969 234.523438 C 1142.027344 233.226562 1142.722656 231.113281 1142.195312 229.121094 Z M 1087.988281 223.992188 L 1105.503906 209.875 L 1104.871094 223.332031 L 1087.355469 237.449219 Z M 1072.808594 282.570312 C 1075.960938 295.359375 1073.9375 308.609375 1067.109375 319.882812 C 1060.28125 331.152344 1049.464844 339.09375 1036.652344 342.242188 C 1023.84375 345.390625 1010.566406 343.371094 999.28125 336.554688 C 987.988281 329.738281 980.035156 318.9375 976.882812 306.148438 C 973.726562 293.359375 975.75 280.109375 982.578125 268.839844 C 989.40625 257.566406 1000.222656 249.628906 1013.035156 246.476562 C 1016.980469 245.507812 1020.972656 245.027344 1024.933594 245.027344 C 1033.835938 245.027344 1042.597656 247.449219 1050.410156 252.167969 C 1053.902344 254.277344 1057.078125 256.769531 1059.890625 259.585938 L 1052.429688 265.597656 C 1050.339844 263.605469 1048.015625 261.828125 1045.484375 260.296875 C 1036.371094 254.796875 1025.652344 253.164062 1015.3125 255.707031 C 1004.96875 258.25 996.238281 264.660156 990.726562 273.757812 C 985.210938 282.855469 983.578125 293.554688 986.125 303.878906 C 988.671875 314.203125 995.09375 322.921875 1004.207031 328.421875 C 1010.511719 332.230469 1017.585938 334.183594 1024.773438 334.183594 C 1027.972656 334.183594 1031.195312 333.796875 1034.378906 333.015625 C 1044.722656 330.472656 1053.453125 324.0625 1058.964844 314.964844 C 1064.476562 305.863281 1066.113281 295.167969 1063.5625 284.84375 C 1062.585938 280.882812 1061.035156 277.160156 1058.984375 273.761719 L 1066.453125 267.742188 C 1069.335938 272.242188 1071.492188 277.234375 1072.808594 282.570312 Z M 1053.386719 287.34375 C 1055.265625 294.957031 1054.0625 302.84375 1049.996094 309.550781 C 1045.933594 316.257812 1039.496094 320.984375 1031.871094 322.855469 C 1024.246094 324.730469 1016.347656 323.527344 1009.628906 319.472656 C 1002.910156 315.414062 998.175781 308.988281 996.300781 301.378906 C 994.425781 293.765625 995.628906 285.882812 999.691406 279.171875 C 1003.753906 272.464844 1010.191406 267.738281 1017.816406 265.867188 C 1020.164062 265.289062 1022.539062 265.003906 1024.898438 265.003906 C 1030.195312 265.003906 1035.410156 266.445312 1040.058594 269.25 C 1041.53125 270.140625 1042.910156 271.144531 1044.179688 272.25 L 1036.589844 278.367188 C 1032.003906 275.015625 1026.027344 273.636719 1020.089844 275.09375 C 1014.9375 276.363281 1010.585938 279.558594 1007.835938 284.09375 C 1005.089844 288.628906 1004.273438 293.960938 1005.542969 299.105469 C 1006.8125 304.253906 1010.015625 308.597656 1014.558594 311.339844 C 1017.699219 313.238281 1021.226562 314.214844 1024.808594 314.214844 C 1026.402344 314.214844 1028.007812 314.019531 1029.597656 313.628906 C 1040.238281 311.015625 1046.761719 300.242188 1044.144531 289.617188 C 1043.878906 288.554688 1043.535156 287.53125 1043.117188 286.550781 L 1050.722656 280.421875 C 1051.886719 282.582031 1052.785156 284.902344 1053.386719 287.34375 Z M 1027.089844 303.46875 C 1024.652344 304.070312 1022.128906 303.683594 1019.980469 302.386719 C 1017.832031 301.089844 1016.320312 299.039062 1015.71875 296.605469 C 1015.121094 294.171875 1015.503906 291.652344 1016.804688 289.507812 C 1018.101562 287.363281 1020.160156 285.851562 1022.597656 285.253906 C 1023.351562 285.070312 1024.101562 284.980469 1024.84375 284.980469 C 1025.859375 284.980469 1026.851562 285.148438 1027.789062 285.457031 L 1021.957031 290.160156 C 1019.707031 291.972656 1019.355469 295.265625 1021.171875 297.515625 C 1022.207031 298.792969 1023.722656 299.460938 1025.253906 299.460938 C 1026.410156 299.460938 1027.570312 299.078125 1028.542969 298.296875 L 1034.21875 293.722656 C 1034.523438 298.183594 1031.585938 302.367188 1027.089844 303.46875 Z M 1107.25 247.8125 L 1093.9375 245.589844 L 1111.457031 231.472656 L 1124.765625 233.691406 Z M 1107.25 247.8125 " fill-opacity="1" fill-rule="nonzero"/></g><path fill="#000000" d="M 1135.15625 340.09375 L 1074.789062 340.09375 C 1072.347656 340.09375 1070.371094 342.066406 1070.371094 344.503906 L 1070.371094 600.410156 C 1070.371094 602.847656 1072.347656 604.820312 1074.789062 604.820312 L 1135.15625 604.820312 C 1137.597656 604.820312 1139.574219 602.847656 1139.574219 600.410156 L 1139.574219 344.503906 C 1139.574219 342.066406 1137.597656 340.09375 1135.15625 340.09375 Z M 1130.734375 596 L 1079.210938 596 L 1079.210938 588.425781 L 1095.011719 588.425781 C 1097.449219 588.425781 1099.429688 586.453125 1099.429688 584.015625 C 1099.429688 581.578125 1097.449219 579.605469 1095.011719 579.605469 L 1079.210938 579.605469 L 1079.210938 563.832031 L 1086.796875 563.832031 C 1089.238281 563.832031 1091.21875 561.859375 1091.21875 559.421875 C 1091.21875 556.984375 1089.238281 555.011719 1086.796875 555.011719 L 1079.210938 555.011719 L 1079.210938 539.238281 L 1095.011719 539.238281 C 1097.449219 539.238281 1099.429688 537.265625 1099.429688 534.828125 C 1099.429688 532.390625 1097.449219 530.417969 1095.011719 530.417969 L 1079.210938 530.417969 L 1079.210938 514.644531 L 1086.796875 514.644531 C 1089.238281 514.644531 1091.21875 512.671875 1091.21875 510.234375 C 1091.21875 507.796875 1089.238281 505.824219 1086.796875 505.824219 L 1079.210938 505.824219 L 1079.210938 490.050781 L 1095.011719 490.050781 C 1097.449219 490.050781 1099.429688 488.078125 1099.429688 485.640625 C 1099.429688 483.203125 1097.449219 481.230469 1095.011719 481.230469 L 1079.210938 481.230469 L 1079.210938 465.457031 L 1086.796875 465.457031 C 1089.238281 465.457031 1091.21875 463.484375 1091.21875 461.046875 C 1091.21875 458.609375 1089.238281 456.632812 1086.796875 456.632812 L 1079.210938 456.632812 L 1079.210938 440.863281 L 1095.011719 440.863281 C 1097.449219 440.863281 1099.429688 438.890625 1099.429688 436.453125 C 1099.429688 434.015625 1097.449219 432.039062 1095.011719 432.039062 L 1079.210938 432.039062 L 1079.210938 416.269531 L 1086.796875 416.269531 C 1089.238281 416.269531 1091.21875 414.292969 1091.21875 411.855469 C 1091.21875 409.417969 1089.238281 407.445312 1086.796875 407.445312 L 1079.210938 407.445312 L 1079.210938 391.675781 L 1095.011719 391.675781 C 1097.449219 391.675781 1099.429688 389.699219 1099.429688 387.261719 C 1099.429688 384.824219 1097.449219 382.851562 1095.011719 382.851562 L 1079.210938 382.851562 L 1079.210938 367.082031 L 1086.796875 367.082031 C 1089.238281 367.082031 1091.21875 365.105469 1091.21875 362.671875 C 1091.21875 360.234375 1089.238281 358.257812 1086.796875 358.257812 L 1079.210938 358.257812 L 1079.210938 348.917969 L 1130.734375 348.917969 Z M 1130.734375 596 " fill-opacity="1" fill-rule="nonzero"/><g clip-path="url(#e56c0be341)"><path fill="#000000" d="M 1048.71875 417.382812 L 1012.324219 417.382812 C 1006.707031 417.382812 1002.140625 421.941406 1002.140625 427.546875 L 1002.140625 595.820312 L 992.164062 595.820312 L 992.164062 495.019531 C 992.164062 489.300781 987.503906 484.644531 981.773438 484.644531 L 945.796875 484.644531 C 940.066406 484.644531 935.402344 489.300781 935.402344 495.019531 L 935.402344 595.820312 L 926.269531 595.820312 L 926.269531 465.441406 C 926.269531 459.09375 921.097656 453.925781 914.738281 453.925781 L 881.042969 453.925781 C 874.683594 453.925781 869.507812 459.09375 869.507812 465.441406 L 869.507812 595.820312 L 860.378906 595.820312 L 860.378906 515.859375 C 860.378906 510.753906 856.21875 506.601562 851.101562 506.601562 L 812.890625 506.601562 C 807.777344 506.601562 803.617188 510.753906 803.617188 515.859375 L 803.617188 595.820312 L 796.105469 595.820312 C 793.210938 595.820312 790.867188 598.164062 790.867188 601.054688 C 790.867188 603.941406 793.210938 606.285156 796.105469 606.285156 L 1053.660156 606.285156 C 1056.554688 606.285156 1058.902344 603.941406 1058.902344 601.054688 L 1058.902344 427.546875 C 1058.902344 421.941406 1054.335938 417.382812 1048.71875 417.382812 Z M 814.097656 595.820312 L 814.097656 517.0625 L 849.898438 517.0625 L 849.898438 595.820312 Z M 879.988281 595.820312 L 879.988281 465.441406 C 879.988281 464.863281 880.460938 464.390625 881.042969 464.390625 L 914.738281 464.390625 C 915.320312 464.390625 915.789062 464.863281 915.789062 465.441406 L 915.789062 595.820312 Z M 945.882812 595.820312 L 945.882812 495.105469 L 981.683594 495.105469 L 981.683594 595.820312 Z M 1048.421875 595.820312 L 1012.621094 595.820312 L 1012.621094 427.84375 L 1048.421875 427.84375 Z M 1048.421875 595.820312 " fill-opacity="1" fill-rule="nonzero"/></g><path fill="#000000" d="M 831.996094 495.109375 C 840.941406 495.109375 848.21875 487.84375 848.21875 478.914062 C 848.21875 476.753906 847.792969 474.695312 847.023438 472.8125 L 891.195312 432.828125 C 893.234375 433.753906 895.503906 434.273438 897.890625 434.273438 C 902.539062 434.273438 906.734375 432.308594 909.695312 429.171875 L 948.429688 455.394531 C 948.140625 456.605469 947.984375 457.863281 947.984375 459.160156 C 947.984375 468.089844 955.261719 475.355469 964.207031 475.355469 C 973.152344 475.355469 980.429688 468.089844 980.429688 459.160156 C 980.429688 455.789062 979.390625 452.65625 977.617188 450.0625 L 1021.78125 390.289062 C 1024.304688 391.910156 1027.304688 392.847656 1030.519531 392.847656 C 1039.464844 392.847656 1046.742188 385.582031 1046.742188 376.652344 C 1046.742188 367.722656 1039.464844 360.457031 1030.519531 360.457031 C 1021.578125 360.457031 1014.300781 367.722656 1014.300781 376.652344 C 1014.300781 378.414062 1014.582031 380.109375 1015.105469 381.699219 L 969.246094 443.765625 C 967.660156 443.246094 965.964844 442.964844 964.207031 442.964844 C 960.359375 442.964844 956.820312 444.308594 954.035156 446.550781 L 914.050781 419.480469 C 914.089844 419.019531 914.113281 418.550781 914.113281 418.078125 C 914.113281 409.148438 906.835938 401.882812 897.890625 401.882812 C 888.945312 401.882812 881.667969 409.148438 881.667969 418.078125 C 881.667969 420.804688 882.347656 423.375 883.542969 425.628906 L 840.144531 464.914062 C 837.75 463.519531 834.964844 462.71875 831.996094 462.71875 C 823.054688 462.71875 815.777344 469.984375 815.777344 478.914062 C 815.777344 487.84375 823.054688 495.109375 831.996094 495.109375 Z M 1030.519531 370.917969 C 1033.6875 370.917969 1036.261719 373.488281 1036.261719 376.652344 C 1036.261719 379.8125 1033.6875 382.382812 1030.519531 382.382812 C 1027.355469 382.382812 1024.777344 379.8125 1024.777344 376.652344 C 1024.78125 373.488281 1027.355469 370.917969 1030.519531 370.917969 Z M 964.207031 453.425781 C 967.371094 453.425781 969.949219 456 969.949219 459.160156 C 969.949219 462.320312 967.375 464.890625 964.207031 464.890625 C 961.042969 464.890625 958.464844 462.320312 958.464844 459.160156 C 958.464844 455.996094 961.039062 453.425781 964.207031 453.425781 Z M 897.890625 412.34375 C 901.058594 412.34375 903.632812 414.914062 903.632812 418.078125 C 903.632812 421.238281 901.058594 423.808594 897.890625 423.808594 C 894.726562 423.808594 892.148438 421.238281 892.148438 418.078125 C 892.148438 414.914062 894.722656 412.34375 897.890625 412.34375 Z M 831.996094 473.179688 C 835.164062 473.179688 837.738281 475.75 837.738281 478.914062 C 837.738281 482.074219 835.164062 484.644531 831.996094 484.644531 C 828.832031 484.644531 826.253906 482.074219 826.253906 478.914062 C 826.253906 475.753906 828.832031 473.179688 831.996094 473.179688 Z M 831.996094 473.179688 " fill-opacity="1" fill-rule="nonzero"/><path fill="#f69d9e" d="M 105.707031 92.882812 C 104.828125 86.441406 99.5 81.140625 93.3125 78.738281 C 83.125 74.777344 71.761719 77.085938 61.417969 74.058594 C 59.992188 73.296875 58.957031 72.359375 58.253906 71.332031 C 55.699219 63.328125 62.484375 54.800781 70.710938 52.910156 C 73.941406 52.179688 76.964844 52.351562 80.019531 52.878906 C 81.054688 53.582031 82.261719 53.910156 83.390625 53.582031 C 83.859375 53.691406 84.332031 53.800781 84.816406 53.925781 C 86.617188 54.363281 88.40625 54.644531 90.160156 54.566406 C 91.960938 55.84375 94.816406 55.125 95.960938 53.019531 C 97.402344 50.371094 95.347656 46.84375 92.308594 46.875 C 91.898438 46.875 91.523438 46.953125 91.164062 47.0625 C 90.851562 46.953125 90.535156 46.90625 90.207031 46.890625 C 89 46.035156 87.714844 45.316406 86.382812 44.753906 C 86.179688 44.507812 85.867188 44.382812 85.492188 44.398438 C 84.910156 44.179688 84.316406 43.992188 83.71875 43.820312 C 82.683594 43.382812 81.683594 43.179688 80.695312 43.164062 C 75.085938 42.011719 69.191406 42.554688 64.019531 45.410156 C 62.515625 46.238281 61.136719 47.25 59.882812 48.390625 C 59.414062 48.546875 58.957031 48.808594 58.613281 49.214844 C 58.316406 49.558594 58.113281 49.949219 57.984375 50.355469 C 57.703125 50.699219 57.421875 51.039062 57.15625 51.398438 C 57 51.476562 56.84375 51.585938 56.734375 51.742188 C 55.964844 52.742188 55.402344 53.785156 55.007812 54.878906 C 54.617188 55.65625 54.273438 56.453125 53.972656 57.277344 C 51.261719 61.800781 50.101562 66.886719 52.578125 71.425781 C 53.160156 73.515625 54.414062 75.433594 56.121094 76.976562 C 60.195312 80.625 65.996094 81.1875 71.183594 81.921875 C 81.023438 83.292969 92.933594 86.148438 98.089844 94.988281 C 97.902344 100.199219 94.972656 105.484375 89.660156 108.730469 C 84.285156 112.003906 78.03125 112.769531 72.292969 111.441406 C 70.835938 110.835938 69.425781 110.101562 68.25 109.089844 C 66.089844 107.214844 65.570312 104.800781 64.789062 102.195312 C 63.925781 99.308594 62.4375 95.972656 59.113281 95.300781 C 56.8125 94.832031 55.179688 95.957031 54.429688 97.46875 C 54.066406 97.671875 53.863281 98.046875 54.066406 98.546875 C 53.878906 99.480469 53.988281 100.449219 54.445312 101.257812 C 57.171875 111.878906 67.5625 118.554688 78.375 118.585938 C 83.578125 118.585938 89.738281 117.167969 94.957031 114.359375 C 95.207031 114.359375 95.457031 114.28125 95.675781 114.046875 C 95.738281 113.984375 95.785156 113.921875 95.832031 113.859375 C 100.753906 111.007812 104.71875 106.890625 106.019531 101.539062 C 106.773438 98.46875 106.570312 95.550781 105.691406 92.867188 Z M 87.183594 52.257812 C 87.574219 52.242188 87.996094 52.148438 88.390625 52.007812 C 88.484375 52.070312 88.578125 52.117188 88.671875 52.148438 C 88.6875 52.273438 88.71875 52.414062 88.75 52.539062 C 88.125 52.523438 87.496094 52.460938 86.871094 52.367188 C 86.980469 52.335938 87.074219 52.289062 87.167969 52.257812 Z M 84.535156 46.84375 C 84.535156 46.84375 84.535156 46.890625 84.519531 46.90625 C 84.503906 46.90625 84.472656 46.90625 84.457031 46.90625 C 84.488281 46.890625 84.503906 46.875 84.535156 46.859375 Z M 79.660156 45.253906 C 79.878906 45.269531 80.113281 45.316406 80.335938 45.332031 C 80.304688 45.332031 80.289062 45.363281 80.257812 45.363281 C 79.925781 45.410156 79.582031 45.503906 79.269531 45.644531 C 79.066406 45.644531 78.875 45.707031 78.71875 45.800781 C 78.515625 45.691406 78.296875 45.613281 78.078125 45.550781 C 78.609375 45.394531 79.128906 45.285156 79.660156 45.238281 Z M 65.570312 48.964844 C 65.664062 48.949219 65.757812 48.933594 65.855469 48.917969 C 65.804688 48.980469 65.757812 49.042969 65.726562 49.121094 C 65.664062 49.152344 65.617188 49.199219 65.554688 49.230469 C 65.554688 49.136719 65.554688 49.058594 65.570312 48.964844 Z M 83.671875 82.339844 C 82.308594 81.921875 80.945312 81.578125 79.566406 81.28125 C 81.007812 81.46875 82.449219 81.71875 83.875 82.03125 C 84.988281 82.402344 86.054688 82.839844 87.089844 83.324219 C 87.199219 83.417969 87.339844 83.511719 87.511719 83.558594 C 87.605469 83.589844 87.699219 83.621094 87.792969 83.652344 C 88.96875 84.242188 90.082031 84.898438 91.164062 85.632812 C 88.828125 84.242188 86.273438 83.152344 83.671875 82.339844 Z M 67.84375 114.078125 C 67.84375 114.078125 68 114.09375 68.078125 114.109375 C 68.109375 114.140625 68.140625 114.1875 68.1875 114.21875 C 68.078125 114.171875 67.953125 114.125 67.84375 114.078125 Z M 94.53125 112.019531 C 94.53125 112.019531 94.4375 112.066406 94.40625 112.097656 C 94.46875 112.003906 94.546875 111.910156 94.613281 111.816406 C 94.660156 111.785156 94.707031 111.753906 94.753906 111.722656 L 94.546875 112.019531 Z M 96.820312 105.625 C 96.507812 105.828125 96.195312 106.046875 95.898438 106.265625 C 96.289062 105.8125 96.664062 105.34375 97.007812 104.863281 C 97.007812 105.015625 97.007812 105.171875 97.007812 105.328125 C 96.945312 105.4375 96.882812 105.53125 96.820312 105.640625 Z M 99.5625 108.214844 C 99.609375 108.011719 99.578125 107.808594 99.5 107.621094 C 99.5625 107.621094 99.609375 107.589844 99.671875 107.558594 C 99.957031 107.433594 100.238281 107.308594 100.519531 107.183594 C 100.222656 107.527344 99.894531 107.871094 99.5625 108.214844 Z M 100.816406 88.609375 C 100.519531 88.175781 100.191406 87.769531 99.832031 87.363281 C 99.734375 87.160156 99.640625 86.957031 99.53125 86.769531 C 100.097656 87.378906 100.628906 88.019531 101.113281 88.6875 C 101.019531 88.65625 100.925781 88.625 100.832031 88.609375 Z M 103.84375 101.164062 C 103.796875 101.070312 103.765625 100.992188 103.714844 100.898438 C 103.8125 100.808594 103.890625 100.699219 103.984375 100.605469 C 103.9375 100.792969 103.890625 100.976562 103.84375 101.164062 Z M 104.234375 98.933594 C 104.234375 98.933594 104.125 98.808594 104.0625 98.761719 C 104.0625 98.761719 104.0625 98.734375 104.078125 98.71875 C 104.125 98.734375 104.1875 98.746094 104.25 98.761719 C 104.25 98.824219 104.25 98.871094 104.25 98.933594 Z M 104.234375 98.933594 " fill-opacity="1" fill-rule="nonzero"/><g clip-path="url(#d6798b60df)"><path fill="#dd9ac4" d="M 360.046875 45.175781 C 357.144531 45.363281 354.246094 45.753906 351.347656 46.144531 C 349.246094 46.191406 347.164062 46.222656 345.0625 46.269531 C 344.1875 46.207031 342.917969 46.207031 341.617188 46.332031 C 340.078125 46.363281 338.558594 46.394531 337.023438 46.425781 C 335.957031 44.988281 334.328125 44.132812 332.542969 44.429688 C 332.070312 43.914062 331.019531 43.914062 330.785156 44.785156 C 330.628906 45.378906 330.503906 45.957031 330.378906 46.550781 C 323.953125 46.671875 317.542969 46.78125 311.117188 46.90625 C 308.828125 46.113281 307.183594 48.917969 308.421875 50.789062 C 309.347656 52.195312 311.132812 52.398438 312.652344 52.570312 C 316.054688 52.972656 319.550781 53.050781 322.964844 53.113281 C 325.285156 53.160156 327.621094 53.160156 329.941406 53.113281 C 329.988281 54.191406 330.082031 55.25 330.191406 56.328125 C 330.003906 56.484375 329.863281 56.734375 329.863281 57.058594 C 329.78125 67.089844 330.347656 77.101562 331.554688 87.035156 C 330.910156 95.316406 330.644531 103.941406 333.558594 111.582031 C 332.855469 112.488281 332.621094 113.6875 333.261719 114.90625 C 333.605469 115.542969 334.078125 115.964844 334.625 116.199219 C 335.457031 118.695312 336.976562 120.613281 339.640625 119.863281 C 342.335938 119.101562 342.085938 117.058594 341.003906 115.25 C 341.003906 114.9375 340.957031 114.625 340.910156 114.3125 C 341.238281 111.957031 341.066406 109.570312 340.425781 107.136719 C 340.316406 106.71875 340.015625 106.5 339.703125 106.4375 C 339.265625 102.679688 338.902344 98.917969 338.605469 95.144531 C 338.636719 94.382812 338.574219 93.648438 338.449219 92.914062 C 338.074219 87.628906 337.839844 82.324219 337.746094 77.007812 C 337.855469 76.820312 337.933594 76.601562 337.980469 76.351562 C 338.058594 75.835938 337.949219 75.402344 337.714844 75.042969 C 337.683594 72.796875 337.683594 70.550781 337.714844 68.289062 C 337.746094 66.152344 337.792969 64.015625 337.871094 61.878906 C 338.042969 61.644531 338.167969 61.378906 338.246094 61.070312 C 338.402344 60.414062 338.277344 59.820312 337.964844 59.351562 C 337.980469 58.824219 337.996094 58.292969 338.027344 57.761719 C 338.089844 56.390625 338.261719 54.941406 338.355469 53.503906 C 342.257812 53.550781 346.175781 53.238281 350.03125 52.601562 C 353.257812 52.664062 356.628906 52.863281 359.792969 52.492188 C 361.582031 52.273438 363.226562 50.992188 363.539062 49.542969 C 363.664062 49.511719 363.777344 49.480469 363.902344 49.433594 C 364.308594 49.308594 364.667969 48.902344 364.652344 48.46875 C 364.511719 45.816406 362.507812 45.003906 360.046875 45.175781 Z M 325.722656 48.761719 C 325.722656 48.761719 325.707031 48.6875 325.691406 48.640625 C 325.863281 48.640625 326.039062 48.640625 326.210938 48.640625 C 326.054688 48.6875 325.898438 48.714844 325.738281 48.761719 Z M 332.132812 53.457031 C 332.117188 53.332031 332.070312 53.222656 332.023438 53.128906 C 332.195312 53.144531 332.367188 53.160156 332.527344 53.191406 C 332.382812 53.269531 332.257812 53.363281 332.132812 53.457031 Z M 335.722656 65.714844 C 335.722656 65.714844 335.722656 65.746094 335.722656 65.777344 C 335.707031 65.777344 335.691406 65.777344 335.675781 65.761719 C 335.691406 65.761719 335.707031 65.730469 335.722656 65.730469 Z M 335.160156 70.097656 C 335.316406 70.019531 335.457031 69.894531 335.566406 69.738281 C 335.597656 69.691406 335.628906 69.628906 335.660156 69.582031 C 335.660156 69.816406 335.660156 70.035156 335.660156 70.269531 C 335.488281 70.269531 335.316406 70.300781 335.175781 70.394531 C 335.175781 70.300781 335.175781 70.191406 335.175781 70.097656 Z M 335.753906 90.839844 C 335.753906 90.839844 335.753906 90.964844 335.753906 91.027344 C 335.628906 91.074219 335.503906 91.152344 335.394531 91.246094 C 335.488281 90.746094 335.582031 90.25 335.675781 89.75 C 335.863281 89.484375 336.019531 89.234375 336.144531 88.984375 C 336.160156 89.34375 336.191406 89.703125 336.207031 90.0625 C 335.957031 90.25 335.753906 90.527344 335.738281 90.839844 Z M 344.21875 49.214844 C 344.46875 49.089844 344.71875 48.949219 344.984375 48.808594 C 345.140625 48.917969 345.34375 48.964844 345.582031 48.933594 C 345.660156 48.933594 345.769531 48.902344 345.878906 48.886719 C 345.328125 49.011719 344.78125 49.121094 344.21875 49.214844 Z M 352.757812 48.328125 C 352.539062 48.390625 352.320312 48.46875 352.101562 48.53125 C 352.132812 48.40625 352.132812 48.28125 352.101562 48.15625 C 352.445312 48.15625 352.789062 48.15625 353.117188 48.140625 C 352.992188 48.203125 352.867188 48.265625 352.742188 48.328125 Z M 360.078125 47.59375 C 360.078125 47.59375 360.140625 47.484375 360.15625 47.4375 C 360.3125 47.4375 360.46875 47.46875 360.625 47.484375 C 360.4375 47.53125 360.25 47.5625 360.078125 47.609375 Z M 360.078125 47.59375 " fill-opacity="1" fill-rule="nonzero"/></g><path fill="#f15d5c" d="M 251 109.210938 C 250.84375 109.210938 250.6875 109.195312 250.5 109.167969 C 248.476562 103.144531 246.300781 97.046875 244.042969 90.996094 C 244.292969 90.777344 244.417969 90.433594 244.386719 90.0625 C 244.355469 89.703125 244.183594 89.40625 243.902344 89.21875 C 245.875 89.328125 247.867188 89.15625 249.839844 88.734375 C 250.328125 88.625 250.640625 88.253906 250.65625 87.769531 C 250.6875 87.238281 250.375 86.769531 249.902344 86.597656 C 250.15625 86.054688 250.203125 85.539062 250.042969 85.085938 C 249.855469 84.507812 249.339844 84.011719 248.507812 83.605469 C 248.507812 83.574219 248.507812 83.542969 248.507812 83.511719 C 248.601562 82.292969 248.320312 81.375 247.679688 80.796875 C 246.285156 79.535156 243.539062 80.03125 241.128906 80.484375 L 240.957031 80.515625 C 239.074219 74.324219 236.550781 67.726562 233.039062 59.835938 L 231.582031 53.972656 C 231.144531 48.949219 229.3125 45.769531 226.144531 44.492188 L 226.066406 44.179688 C 225.941406 43.695312 225.582031 43.382812 225.109375 43.367188 C 224.671875 43.335938 224.25 43.601562 224.046875 43.976562 C 223.324219 43.914062 222.585938 43.992188 221.867188 44.226562 C 217.367188 44.304688 215.269531 49.121094 213.578125 52.988281 L 212.558594 55.3125 C 211.898438 56.265625 211.320312 57.152344 210.847656 57.871094 C 210.582031 58.277344 210.363281 58.621094 210.175781 58.902344 C 206.101562 64.890625 202.699219 71.410156 200.066406 78.285156 C 199.347656 78.238281 198.671875 78.238281 198.09375 78.222656 L 198.015625 78.222656 C 196.117188 78.222656 194.582031 78.597656 193.453125 79.347656 C 192.796875 79.285156 192.152344 79.253906 191.527344 79.253906 C 191.085938 79.253906 190.742188 79.472656 190.554688 79.847656 C 190.351562 80.25 190.414062 80.765625 190.710938 81.140625 C 190.710938 81.140625 190.726562 81.171875 190.742188 81.171875 C 190.367188 81.34375 190.132812 81.703125 190.070312 82.074219 C 189.988281 82.558594 190.210938 83.105469 190.867188 83.261719 L 191.164062 83.324219 C 191.132812 83.449219 191.117188 83.574219 191.101562 83.699219 L 191.023438 83.699219 C 190.898438 83.699219 190.773438 83.699219 190.632812 83.699219 C 189.941406 83.683594 189.582031 84.148438 189.535156 84.632812 C 189.488281 85.101562 189.738281 85.648438 190.273438 85.851562 C 190.273438 86.085938 190.335938 86.316406 190.476562 86.488281 C 190.632812 86.691406 190.851562 86.832031 191.117188 86.863281 L 191.699219 86.941406 C 192.261719 88.097656 193.171875 89.0625 194.394531 89.78125 L 194.300781 89.953125 C 191.179688 90.730469 189.832031 95.691406 189.097656 98.359375 L 188.925781 98.980469 C 188.203125 101.539062 187.6875 104.253906 187.375 107.046875 C 186.511719 108.464844 185.820312 109.664062 185.195312 110.820312 C 184.851562 111.457031 185.148438 112.035156 185.570312 112.285156 C 186.007812 112.550781 186.652344 112.535156 187.058594 112.019531 C 187.027344 113.78125 187.089844 115.527344 187.230469 117.214844 C 187.261719 117.664062 187.546875 118.054688 187.953125 118.210938 C 188.359375 118.367188 188.800781 118.289062 189.128906 117.976562 C 189.128906 117.976562 189.160156 117.945312 189.175781 117.945312 C 189.738281 118.523438 190.429688 118.929688 191.242188 119.117188 C 191.558594 119.195312 191.855469 119.226562 192.136719 119.226562 C 194.660156 119.226562 195.929688 116.308594 196.808594 114.3125 C 196.902344 114.09375 196.996094 113.875 197.089844 113.671875 L 198.796875 109.882812 C 199.03125 109.945312 199.300781 109.929688 199.519531 109.835938 C 199.816406 109.710938 200.035156 109.476562 200.144531 109.164062 L 201.304688 105.84375 C 201.507812 105.703125 201.648438 105.515625 201.726562 105.28125 L 206.476562 92.011719 C 211.664062 92.230469 217.449219 91.917969 223.652344 91.074219 C 224.65625 90.933594 225.707031 90.777344 226.773438 90.605469 C 228.855469 90.730469 231.003906 90.855469 233.152344 90.949219 C 233.496094 91.667969 233.855469 92.371094 234.214844 93.085938 C 234.292969 93.523438 234.355469 93.945312 234.4375 94.367188 C 234.074219 94.554688 233.902344 94.910156 233.949219 95.347656 C 234.703125 101.242188 236.722656 106.6875 239.953125 111.535156 C 240.203125 111.910156 240.6875 112.113281 241.160156 112.035156 C 241.457031 111.988281 241.691406 111.816406 241.847656 111.582031 C 242.367188 112.332031 242.867188 113.003906 243.351562 113.609375 C 243.636719 113.953125 244.121094 114.0625 244.605469 113.859375 C 245.015625 113.6875 245.265625 113.359375 245.296875 112.988281 C 245.40625 113.097656 245.5 113.207031 245.59375 113.300781 C 245.828125 113.53125 246.15625 113.65625 246.503906 113.609375 C 246.847656 113.5625 247.160156 113.375 247.347656 113.082031 C 247.378906 113.019531 247.425781 112.957031 247.457031 112.894531 C 247.695312 112.863281 247.898438 112.769531 248.070312 112.628906 L 248.101562 112.707031 C 248.289062 113.144531 248.492188 113.578125 248.679688 114 C 248.949219 114.59375 249.589844 114.6875 250.109375 114.46875 C 250.609375 114.25 250.96875 113.734375 250.734375 113.144531 L 250.011719 111.378906 C 250.34375 111.441406 250.671875 111.472656 251 111.488281 C 251 111.488281 251.015625 111.488281 251.03125 111.488281 C 251.707031 111.488281 252.082031 110.960938 252.097656 110.429688 C 252.097656 109.882812 251.738281 109.289062 251.015625 109.257812 Z M 190.335938 111.957031 C 190.195312 111.753906 190.101562 111.457031 190.101562 111.085938 C 190.195312 111.085938 190.304688 111.070312 190.398438 111.039062 C 190.367188 111.332031 190.351562 111.644531 190.351562 111.957031 Z M 191.417969 116.011719 C 191.371094 116.167969 191.324219 116.324219 191.292969 116.480469 C 191.117188 116.480469 190.960938 116.449219 190.835938 116.324219 C 191.054688 116.105469 191.292969 115.855469 191.542969 115.589844 Z M 195.429688 87.832031 C 195.191406 87.691406 194.972656 87.519531 194.769531 87.347656 C 195.050781 87.394531 195.335938 87.425781 195.632812 87.472656 C 195.570312 87.597656 195.492188 87.707031 195.429688 87.832031 Z M 200.429688 96.84375 C 200.363281 96.644531 200.253906 96.472656 200.128906 96.332031 L 200.332031 95.769531 L 201.917969 93.226562 C 202.121094 92.882812 202.152344 92.507812 201.980469 92.199219 L 202.230469 91.683594 C 202.417969 91.699219 202.605469 91.714844 202.808594 91.746094 L 200.445312 96.84375 Z M 203.5 89.484375 L 203.265625 89.484375 C 203.265625 89.484375 203.71875 88.515625 203.71875 88.515625 L 203.796875 88.515625 Z M 213.734375 89.671875 C 211.664062 89.75 209.484375 89.75 207.292969 89.671875 L 207.558594 88.9375 C 209.910156 89.1875 212.230469 89.421875 214.484375 89.640625 C 214.234375 89.640625 213.984375 89.65625 213.734375 89.671875 Z M 222.933594 80.125 L 220.410156 79.878906 C 220.035156 79.847656 219.71875 79.96875 219.515625 80.25 C 216.539062 80.1875 213.53125 80.25 210.582031 80.4375 L 210.898438 79.566406 L 219.078125 61.957031 C 219.515625 61.972656 219.984375 61.753906 220.160156 61.164062 L 221.300781 57.167969 L 221.554688 56.625 C 223.152344 62.941406 225.300781 70.988281 228.136719 78.863281 C 225.691406 78.941406 224 79.363281 222.933594 80.109375 Z M 229.359375 57.042969 C 229.359375 57.042969 229.359375 57.058594 229.375 57.074219 C 229.375 57.074219 229.375 57.089844 229.375 57.105469 L 229.375 57.042969 Z M 250.25 109.335938 Z M 250.25 109.335938 " fill-opacity="1" fill-rule="nonzero"/><path fill="#efd35e" d="M 176.011719 86.101562 C 175.226562 72.375 173.207031 58.761719 170.132812 45.363281 C 169.742188 43.664062 167.375 43.882812 166.90625 45.316406 C 166.609375 45.191406 166.292969 45.097656 165.933594 45.082031 C 164.039062 44.988281 163.222656 45.894531 162.816406 47.140625 C 162.707031 47.234375 162.613281 47.34375 162.53125 47.46875 C 161.859375 48.5 161.199219 49.527344 160.542969 50.558594 C 159.632812 51.664062 158.773438 52.773438 157.925781 53.910156 C 157.675781 53.988281 157.425781 54.128906 157.203125 54.363281 C 152.925781 59.398438 149.542969 64.9375 147.113281 70.894531 C 146.015625 73.0625 144.964844 75.246094 144.007812 77.476562 C 137.675781 67.460938 131.363281 57.433594 125.03125 47.421875 C 124.496094 46.582031 123.605469 46.441406 122.867188 46.796875 C 122.164062 45.988281 121.378906 45.222656 120.4375 44.535156 C 119.355469 43.742188 117.914062 44.832031 117.898438 45.988281 C 117.804688 49.386719 117.804688 52.789062 117.851562 56.1875 C 115.28125 65.03125 116.410156 75.152344 116.566406 84.121094 C 116.707031 91.636719 116.851562 99.167969 116.976562 106.6875 C 117.023438 109.664062 116.753906 113.609375 118.449219 116.308594 C 118.402344 116.980469 118.371094 117.648438 118.324219 118.320312 C 118.199219 120.332031 121.003906 120.441406 121.597656 118.773438 C 124.089844 119.554688 126.863281 118.429688 128.574219 116.355469 C 131.878906 112.363281 130.328125 106.234375 129.792969 101.632812 C 129.324219 97.546875 128.855469 93.460938 128.382812 89.375 C 128.574219 82.933594 128.429688 76.507812 127.726562 70.128906 C 131 75.324219 134.027344 80.65625 136.816406 86.132812 C 137.128906 86.738281 137.613281 86.988281 138.117188 86.988281 C 138.773438 87.941406 139.449219 88.875 140.152344 89.796875 C 140.246094 89.984375 140.34375 90.171875 140.421875 90.359375 C 140.59375 90.714844 140.84375 90.949219 141.140625 91.074219 C 142.144531 92.167969 143.773438 91.136719 143.914062 89.875 C 143.914062 89.875 143.945312 89.875 143.960938 89.890625 C 143.960938 89.890625 143.960938 89.890625 143.960938 89.90625 C 143.820312 91.542969 145.984375 92.679688 147.035156 90.980469 C 151.96875 83.042969 156.171875 74.746094 159.679688 66.105469 C 160.605469 64.515625 161.5625 62.941406 162.53125 61.378906 C 162.359375 78.894531 163.914062 96.347656 167.15625 113.59375 C 167.34375 114.5625 168.097656 114.890625 168.832031 114.78125 C 169.820312 115.839844 171.152344 116.261719 172.921875 115.605469 C 176.511719 114.3125 176.167969 109.414062 176.261719 106.421875 C 176.464844 99.636719 176.386719 92.835938 175.996094 86.054688 Z M 119.859375 93.242188 C 119.859375 92.042969 119.859375 90.855469 119.859375 89.65625 C 119.90625 90.125 119.953125 90.574219 120 91.042969 C 119.953125 91.777344 119.90625 92.507812 119.859375 93.257812 Z M 126.597656 112.628906 C 126.769531 111.007812 126.941406 109.382812 127.097656 107.761719 C 127.144531 108.292969 127.175781 108.824219 127.175781 109.351562 C 127.398438 110.804688 127.207031 111.878906 126.597656 112.628906 Z M 132.695312 69.257812 C 132.441406 68.976562 132.144531 68.835938 131.832031 68.789062 C 131.722656 68.632812 131.597656 68.460938 131.488281 68.304688 C 131.171875 67.695312 130.859375 67.089844 130.5625 66.480469 C 131.332031 67.460938 132.082031 68.445312 132.851562 69.429688 C 132.804688 69.367188 132.757812 69.320312 132.710938 69.257812 Z M 139.777344 79.269531 C 139.480469 78.785156 139.199219 78.300781 138.882812 77.835938 C 138.289062 76.789062 137.660156 75.777344 136.988281 74.777344 C 137.992188 76.070312 138.976562 77.351562 139.980469 78.644531 C 139.886719 78.832031 139.808594 79.035156 139.777344 79.269531 Z M 167.390625 69.972656 C 167.453125 70.238281 167.5 70.488281 167.5625 70.753906 C 167.65625 72.046875 167.769531 73.328125 167.878906 74.621094 C 167.6875 73.078125 167.546875 71.535156 167.40625 69.972656 Z M 170.730469 110.085938 C 170.808594 109.105469 170.886719 108.136719 170.964844 107.152344 C 171.230469 108.089844 171.464844 109.027344 171.75 109.945312 C 171.75 109.976562 171.765625 109.992188 171.78125 110.007812 C 171.371094 110.117188 171.027344 110.132812 170.730469 110.085938 Z M 170.730469 110.085938 " fill-opacity="1" fill-rule="nonzero"/><path fill="#7fd1e3" d="M 305.242188 114.265625 C 305.179688 113.890625 305.117188 113.53125 305.039062 113.160156 C 305.070312 112.738281 305.023438 112.300781 304.863281 111.847656 C 304.816406 111.707031 304.753906 111.597656 304.675781 111.488281 C 302.074219 101.242188 294.160156 93.695312 284.429688 91.042969 C 288.488281 88.238281 291.777344 84.523438 294.066406 80.25 C 298.3125 73.59375 301.417969 64.796875 300.195312 57.292969 C 299.867188 55.296875 299.175781 53.488281 298.21875 51.867188 C 298.21875 51.757812 298.21875 51.664062 298.203125 51.554688 C 298.15625 50.960938 297.75 50.605469 297.3125 50.496094 C 294.363281 46.519531 289.632812 43.914062 284.523438 42.992188 C 279.710938 42.121094 274.964844 42.726562 270.371094 44.023438 C 267.644531 42.402344 263.960938 42.433594 261.828125 45.050781 C 261.265625 45.738281 261.65625 46.625 262.253906 46.9375 C 261.4375 47.28125 260.640625 47.625 259.839844 47.96875 C 258.054688 48.328125 256.296875 49.230469 255.167969 50.417969 C 254.574219 51.039062 254.824219 52.085938 255.671875 52.320312 C 256.832031 52.648438 257.945312 52.820312 259.054688 52.878906 C 259.101562 52.957031 259.164062 53.019531 259.230469 53.082031 C 258.757812 53.410156 258.523438 54.144531 258.867188 54.613281 C 260.167969 56.3125 262.378906 56.609375 264.007812 55.796875 C 264.070312 59.460938 264.132812 63.144531 264.195312 66.808594 C 262.613281 83.230469 262.878906 99.761719 265.011719 116.167969 C 265.121094 116.980469 265.859375 117.355469 266.484375 117.246094 C 266.484375 117.324219 266.484375 117.402344 266.484375 117.480469 C 266.53125 118.789062 268.347656 118.929688 268.710938 117.882812 C 269.242188 118.742188 270.808594 118.554688 270.839844 117.308594 C 270.902344 114.796875 270.949219 112.269531 271.015625 109.757812 L 271.421875 116.636719 C 271.515625 118.117188 273.582031 118.085938 273.726562 116.636719 C 273.726562 116.542969 273.742188 116.433594 273.757812 116.339844 C 274.195312 116.246094 274.554688 115.886719 274.507812 115.28125 C 274.476562 114.875 274.445312 114.484375 274.414062 114.078125 C 274.507812 113.921875 274.570312 113.75 274.585938 113.546875 C 275.011719 107.964844 275.324219 102.382812 275.511719 96.796875 C 278.675781 97.6875 282.25 97.953125 285.273438 98.902344 C 290.824219 100.667969 294.835938 104.878906 297.84375 109.726562 C 297.546875 111.054688 297.484375 112.410156 297.890625 113.578125 C 298.1875 114.546875 298.738281 115.480469 299.535156 116.277344 C 299.976562 116.714844 300.664062 116.667969 301.105469 116.324219 C 301.152344 116.339844 301.199219 116.355469 301.246094 116.371094 C 301.433594 116.808594 301.621094 117.246094 301.792969 117.679688 C 302.34375 119.007812 304.347656 118.539062 304.003906 117.074219 C 303.894531 116.574219 303.753906 116.089844 303.609375 115.605469 C 303.609375 115.605469 303.609375 115.605469 303.625 115.605469 C 304.347656 115.871094 305.351562 115.25 305.195312 114.25 Z M 297.734375 61.660156 C 297.84375 61.488281 297.9375 61.285156 297.9375 61.023438 C 297.9375 60.742188 297.9375 60.460938 297.953125 60.179688 C 298 59.882812 298.03125 59.601562 298.0625 59.304688 C 298.171875 60.851562 298.09375 62.441406 297.859375 64.03125 C 297.8125 63.4375 297.75 62.832031 297.671875 62.222656 C 297.671875 62.160156 297.671875 62.082031 297.671875 62.019531 C 297.671875 61.988281 297.671875 61.941406 297.671875 61.910156 C 297.671875 61.832031 297.703125 61.738281 297.71875 61.660156 Z M 261.75 50.605469 C 260.984375 50.683594 260.214844 50.699219 259.433594 50.652344 C 259.824219 50.480469 260.230469 50.292969 260.625 50.121094 C 261.125 50.199219 261.5625 50.277344 261.941406 50.386719 C 261.863281 50.449219 261.796875 50.527344 261.75 50.605469 Z M 263.789062 46.332031 C 263.789062 46.332031 263.835938 46.269531 263.867188 46.253906 C 263.867188 46.269531 263.867188 46.285156 263.867188 46.300781 C 263.835938 46.300781 263.820312 46.316406 263.789062 46.332031 Z M 265.9375 45.503906 C 265.859375 45.394531 265.746094 45.316406 265.636719 45.253906 C 266.015625 45.175781 266.390625 45.160156 266.78125 45.191406 C 266.5 45.285156 266.21875 45.394531 265.9375 45.503906 Z M 268.523438 55.546875 C 268.429688 55.578125 268.347656 55.625 268.253906 55.671875 C 268.253906 55 268.269531 54.332031 268.285156 53.660156 C 268.285156 53.660156 268.316406 53.660156 268.316406 53.660156 C 268.507812 54.035156 268.695312 54.410156 268.882812 54.785156 C 268.898438 54.816406 268.929688 54.847656 268.945312 54.878906 C 268.789062 55.09375 268.648438 55.3125 268.507812 55.546875 Z M 269.351562 82.496094 C 269.351562 82.496094 269.351562 82.527344 269.351562 82.558594 C 269.351562 82.261719 269.320312 81.984375 269.304688 81.6875 C 269.320312 81.6875 269.335938 81.640625 269.367188 81.625 C 269.367188 81.921875 269.367188 82.199219 269.351562 82.496094 Z M 295.871094 52.476562 C 295.871094 52.925781 295.839844 53.378906 295.839844 53.832031 C 294.441406 50.820312 292.234375 48.25 289.097656 46.859375 C 289.035156 46.8125 288.957031 46.78125 288.878906 46.734375 C 291.714844 48.015625 294.207031 49.917969 295.871094 52.460938 Z M 272.425781 88.019531 C 272.1875 85.039062 271.96875 82.074219 271.734375 79.097656 C 271.765625 77.710938 271.796875 76.320312 271.828125 74.933594 C 271.859375 73.671875 271.890625 72.40625 271.921875 71.160156 C 272.15625 74.480469 272.347656 77.804688 272.457031 81.125 C 272.457031 83.417969 272.441406 85.726562 272.425781 88.019531 Z M 273.867188 45.832031 C 273.710938 45.832031 273.535156 45.863281 273.378906 45.878906 C 273.066406 45.738281 272.722656 45.722656 272.410156 45.863281 C 272.410156 45.863281 272.410156 45.847656 272.394531 45.832031 C 275.199219 45.144531 278.050781 44.769531 280.949219 44.894531 C 281.59375 44.925781 282.21875 44.988281 282.863281 45.066406 C 282.015625 45.050781 281.167969 45.082031 280.339844 45.191406 C 278.222656 44.988281 276.042969 45.191406 273.867188 45.832031 Z M 274.964844 58.667969 C 275.058594 56.140625 275.089844 53.441406 274.617188 50.976562 C 274.726562 50.960938 274.835938 50.929688 274.933594 50.914062 C 276.042969 50.789062 277.171875 50.714844 278.285156 50.652344 C 280.839844 51.054688 283.457031 51.117188 286.121094 50.820312 C 286.230469 50.820312 286.308594 50.777344 286.402344 50.746094 C 289.300781 52.367188 291.855469 54.691406 293.769531 57.667969 C 293.972656 58.105469 294.160156 58.542969 294.332031 58.980469 C 294.332031 59.011719 294.332031 59.027344 294.347656 59.058594 C 294.695312 60.335938 294.929688 61.613281 295.101562 62.894531 C 293.15625 71.640625 288.160156 79.628906 281.058594 85.195312 C 279.351562 86.148438 277.546875 86.941406 275.699219 87.550781 C 275.792969 77.925781 275.542969 68.304688 274.949219 58.683594 Z M 280.230469 89.59375 C 279.773438 89.765625 279.320312 89.9375 278.847656 90.078125 C 280.917969 88.84375 282.816406 87.347656 284.585938 85.679688 C 284.976562 85.414062 285.351562 85.148438 285.730469 84.867188 C 284.992188 85.789062 284.210938 86.660156 283.347656 87.472656 C 282.34375 88.222656 281.292969 88.9375 280.214844 89.59375 Z M 280.230469 89.59375 " fill-opacity="1" fill-rule="nonzero"/></svg>